<svg version="1.2" xmlns="http://www.w3.org/2000/svg" viewBox="0 0 312 292" width="312" height="292">
	<title>logo-svg</title>
	<style>
		.s0 { fill: #000000 } 
		.s1 { opacity: .5;fill: #000000 } 
		.s2 { opacity: .7;fill: #000000 } 
	</style>
	<g id="Icon_ionic-ios-apps">
		<path id="Path_9" class="s0" d="m301.2 59.8l-121.4-55.3q-5.7-2.2-11.7-3.4-6.1-1.1-12.2-1.1-6.1 0-12.2 1.1-6 1.2-11.7 3.4l-121.3 55.3c-14.3 6.5-14.3 17.1 0 23.7l120.2 54.8q6 2.3 12.3 3.5 6.3 1.2 12.8 1.2 6.4 0 12.7-1.2 6.3-1.2 12.3-3.5l120.2-54.8c14.3-6.5 14.3-17.2 0-23.7z"/>
		<g id="Group_1">
			<path id="Path_10" class="s1" d="m136.2 244.9l-64.2-29.3q-1-0.4-2.1-0.7-1.1-0.2-2.2-0.2-1.1 0-2.2 0.2-1.1 0.3-2.1 0.7l-22.4 10.3c-11.3 5.1-11.3 13.5 0 18.7l95.2 43.4q4.7 1.8 9.7 2.8 5 0.9 10.1 0.9 5.1 0 10.1-0.9 5-1 9.7-2.8l95.2-43.4c11.3-5.2 11.3-13.6 0-18.7l-22.4-10.3q-1-0.4-2.1-0.7-1.1-0.2-2.2-0.2-1.1 0-2.2 0.2-1.1 0.3-2.1 0.7l-64.2 29.3q-4.7 1.8-9.7 2.8-5 0.9-10.1 0.9-5.1 0-10.1-0.9-5-1-9.7-2.8z"/>
			<path id="Path_11" class="s2" d="m286.2 143l-23.1-10.5q-1.1-0.5-2.3-0.8-1.2-0.3-2.5-0.3-1.2 0-2.4 0.3-1.2 0.3-2.4 0.8l-78.7 35.6q-4.5 1.4-9.3 2.1-4.8 0.8-9.6 0.8-4.8 0-9.5-0.8-4.8-0.7-9.4-2.1l-78.6-35.6q-1.2-0.5-2.4-0.8-1.2-0.3-2.4-0.3-1.3 0-2.5 0.3-1.2 0.3-2.3 0.8l-23.1 10.5c-12.9 5.8-12.9 15.3 0 21.2l107.8 49.2q5.3 2 11 3.1 5.7 1.1 11.4 1.1 5.8 0 11.4-1.1 5.7-1.1 11.1-3.1l107.8-49.2c12.9-5.9 12.9-15.4 0-21.2z"/>
		</g>
	</g>
</svg>